<mxfile host="app.diagrams.net" modified="2023-06-22T03:17:59.172Z" agent="Mozilla/5.0 (Macintosh; Intel Mac OS X 10_15_7) AppleWebKit/537.36 (KHTML, like Gecko) Chrome/114.0.0.0 Safari/537.36" etag="HtNJPkuNzZ3aTtdJmyqr" version="21.5.0" type="github">
  <diagram name="Page-1" id="MELRqbV8A3voZ9bZHlSS">
    <mxGraphModel dx="1434" dy="775" grid="1" gridSize="10" guides="1" tooltips="1" connect="1" arrows="1" fold="1" page="1" pageScale="1" pageWidth="1400" pageHeight="850" math="0" shadow="0">
      <root>
        <mxCell id="0" />
        <mxCell id="1" parent="0" />
        <mxCell id="jFdYPY6QI9fsC-pB3n-k-7" style="edgeStyle=orthogonalEdgeStyle;rounded=0;orthogonalLoop=1;jettySize=auto;html=1;exitX=1;exitY=0.5;exitDx=0;exitDy=0;entryX=0;entryY=0.5;entryDx=0;entryDy=0;" parent="1" source="jFdYPY6QI9fsC-pB3n-k-19" target="jFdYPY6QI9fsC-pB3n-k-3" edge="1">
          <mxGeometry relative="1" as="geometry" />
        </mxCell>
        <mxCell id="jFdYPY6QI9fsC-pB3n-k-8" value="Run config validator" style="edgeLabel;html=1;align=center;verticalAlign=middle;resizable=0;points=[];fontStyle=1" parent="jFdYPY6QI9fsC-pB3n-k-7" vertex="1" connectable="0">
          <mxGeometry x="-0.012" y="2" relative="1" as="geometry">
            <mxPoint as="offset" />
          </mxGeometry>
        </mxCell>
        <mxCell id="jFdYPY6QI9fsC-pB3n-k-20" style="edgeStyle=orthogonalEdgeStyle;rounded=0;orthogonalLoop=1;jettySize=auto;html=1;exitX=0.5;exitY=1;exitDx=0;exitDy=0;entryX=0.5;entryY=0;entryDx=0;entryDy=0;" parent="1" source="jFdYPY6QI9fsC-pB3n-k-1" target="jFdYPY6QI9fsC-pB3n-k-19" edge="1">
          <mxGeometry relative="1" as="geometry" />
        </mxCell>
        <mxCell id="jFdYPY6QI9fsC-pB3n-k-21" value="Start" style="edgeLabel;html=1;align=center;verticalAlign=middle;resizable=0;points=[];fontStyle=1" parent="jFdYPY6QI9fsC-pB3n-k-20" vertex="1" connectable="0">
          <mxGeometry x="0.05" y="1" relative="1" as="geometry">
            <mxPoint as="offset" />
          </mxGeometry>
        </mxCell>
        <mxCell id="jFdYPY6QI9fsC-pB3n-k-1" value="App" style="rounded=1;whiteSpace=wrap;html=1;" parent="1" vertex="1">
          <mxGeometry x="45" y="40" width="100" height="60" as="geometry" />
        </mxCell>
        <mxCell id="jFdYPY6QI9fsC-pB3n-k-9" style="edgeStyle=orthogonalEdgeStyle;rounded=0;orthogonalLoop=1;jettySize=auto;html=1;exitX=1;exitY=0.5;exitDx=0;exitDy=0;entryX=0;entryY=0.5;entryDx=0;entryDy=0;" parent="1" source="jFdYPY6QI9fsC-pB3n-k-3" target="jFdYPY6QI9fsC-pB3n-k-6" edge="1">
          <mxGeometry relative="1" as="geometry" />
        </mxCell>
        <mxCell id="jFdYPY6QI9fsC-pB3n-k-3" value="Validator &amp;gt; Fetch env variables on process.env" style="rounded=0;whiteSpace=wrap;html=1;" parent="1" vertex="1">
          <mxGeometry x="320" y="180" width="150" height="60" as="geometry" />
        </mxCell>
        <mxCell id="jFdYPY6QI9fsC-pB3n-k-12" style="edgeStyle=orthogonalEdgeStyle;rounded=0;orthogonalLoop=1;jettySize=auto;html=1;exitX=0.5;exitY=1;exitDx=0;exitDy=0;" parent="1" source="jFdYPY6QI9fsC-pB3n-k-6" target="jFdYPY6QI9fsC-pB3n-k-10" edge="1">
          <mxGeometry relative="1" as="geometry" />
        </mxCell>
        <mxCell id="jFdYPY6QI9fsC-pB3n-k-6" value="Validator &amp;gt; Create validations based on environment (dev, qa, prod)" style="rounded=0;whiteSpace=wrap;html=1;" parent="1" vertex="1">
          <mxGeometry x="580" y="180" width="150" height="60" as="geometry" />
        </mxCell>
        <mxCell id="jFdYPY6QI9fsC-pB3n-k-15" style="edgeStyle=orthogonalEdgeStyle;rounded=0;orthogonalLoop=1;jettySize=auto;html=1;exitX=0.5;exitY=1;exitDx=0;exitDy=0;entryX=0.5;entryY=0;entryDx=0;entryDy=0;" parent="1" source="jFdYPY6QI9fsC-pB3n-k-10" target="jFdYPY6QI9fsC-pB3n-k-13" edge="1">
          <mxGeometry relative="1" as="geometry" />
        </mxCell>
        <mxCell id="jFdYPY6QI9fsC-pB3n-k-17" value="No" style="edgeLabel;html=1;align=center;verticalAlign=middle;resizable=0;points=[];fontStyle=1" parent="jFdYPY6QI9fsC-pB3n-k-15" vertex="1" connectable="0">
          <mxGeometry x="-0.2" y="-3" relative="1" as="geometry">
            <mxPoint as="offset" />
          </mxGeometry>
        </mxCell>
        <mxCell id="jFdYPY6QI9fsC-pB3n-k-22" style="edgeStyle=orthogonalEdgeStyle;rounded=0;orthogonalLoop=1;jettySize=auto;html=1;exitX=1;exitY=0.5;exitDx=0;exitDy=0;entryX=0;entryY=0.5;entryDx=0;entryDy=0;" parent="1" source="jFdYPY6QI9fsC-pB3n-k-10" target="jFdYPY6QI9fsC-pB3n-k-18" edge="1">
          <mxGeometry relative="1" as="geometry" />
        </mxCell>
        <mxCell id="jFdYPY6QI9fsC-pB3n-k-23" value="Yes" style="edgeLabel;html=1;align=center;verticalAlign=middle;resizable=0;points=[];fontStyle=1" parent="jFdYPY6QI9fsC-pB3n-k-22" vertex="1" connectable="0">
          <mxGeometry x="-0.0743" y="2" relative="1" as="geometry">
            <mxPoint x="1" as="offset" />
          </mxGeometry>
        </mxCell>
        <mxCell id="jFdYPY6QI9fsC-pB3n-k-10" value="Validation passed?" style="rhombus;whiteSpace=wrap;html=1;" parent="1" vertex="1">
          <mxGeometry x="607.5" y="300" width="95" height="90" as="geometry" />
        </mxCell>
        <mxCell id="jFdYPY6QI9fsC-pB3n-k-16" style="edgeStyle=orthogonalEdgeStyle;rounded=0;orthogonalLoop=1;jettySize=auto;html=1;exitX=0.5;exitY=1;exitDx=0;exitDy=0;" parent="1" source="jFdYPY6QI9fsC-pB3n-k-13" target="jFdYPY6QI9fsC-pB3n-k-14" edge="1">
          <mxGeometry relative="1" as="geometry" />
        </mxCell>
        <mxCell id="jFdYPY6QI9fsC-pB3n-k-13" value="Validator &amp;gt; Log error on server and send error report to Sentry" style="rounded=0;whiteSpace=wrap;html=1;" parent="1" vertex="1">
          <mxGeometry x="580" y="460" width="150" height="60" as="geometry" />
        </mxCell>
        <mxCell id="nG8rjf1AwgWLsQHCp2_6-1" style="edgeStyle=orthogonalEdgeStyle;rounded=0;orthogonalLoop=1;jettySize=auto;html=1;exitX=1;exitY=0.5;exitDx=0;exitDy=0;entryX=0.5;entryY=1;entryDx=0;entryDy=0;" edge="1" parent="1" source="jFdYPY6QI9fsC-pB3n-k-14" target="jFdYPY6QI9fsC-pB3n-k-25">
          <mxGeometry relative="1" as="geometry" />
        </mxCell>
        <mxCell id="nG8rjf1AwgWLsQHCp2_6-2" value="End" style="edgeLabel;html=1;align=center;verticalAlign=middle;resizable=0;points=[];fontStyle=1" vertex="1" connectable="0" parent="nG8rjf1AwgWLsQHCp2_6-1">
          <mxGeometry x="-0.2455" y="4" relative="1" as="geometry">
            <mxPoint as="offset" />
          </mxGeometry>
        </mxCell>
        <mxCell id="jFdYPY6QI9fsC-pB3n-k-14" value="Terminate the app using process.exit(1);" style="rounded=0;whiteSpace=wrap;html=1;" parent="1" vertex="1">
          <mxGeometry x="580" y="580" width="150" height="60" as="geometry" />
        </mxCell>
        <mxCell id="jFdYPY6QI9fsC-pB3n-k-26" style="edgeStyle=orthogonalEdgeStyle;rounded=0;orthogonalLoop=1;jettySize=auto;html=1;exitX=1;exitY=0.5;exitDx=0;exitDy=0;entryX=0;entryY=0.5;entryDx=0;entryDy=0;" parent="1" source="jFdYPY6QI9fsC-pB3n-k-18" target="jFdYPY6QI9fsC-pB3n-k-24" edge="1">
          <mxGeometry relative="1" as="geometry" />
        </mxCell>
        <mxCell id="jFdYPY6QI9fsC-pB3n-k-18" value="Initalize database" style="rounded=0;whiteSpace=wrap;html=1;" parent="1" vertex="1">
          <mxGeometry x="790" y="315" width="150" height="60" as="geometry" />
        </mxCell>
        <mxCell id="jFdYPY6QI9fsC-pB3n-k-19" value="Initialize monitoring tools (Sentry, New Relic)" style="rounded=0;whiteSpace=wrap;html=1;" parent="1" vertex="1">
          <mxGeometry x="20" y="180" width="150" height="60" as="geometry" />
        </mxCell>
        <mxCell id="jFdYPY6QI9fsC-pB3n-k-27" value="End" style="edgeStyle=orthogonalEdgeStyle;rounded=0;orthogonalLoop=1;jettySize=auto;html=1;exitX=1;exitY=0.5;exitDx=0;exitDy=0;entryX=0;entryY=0.5;entryDx=0;entryDy=0;fontStyle=1" parent="1" source="jFdYPY6QI9fsC-pB3n-k-24" target="jFdYPY6QI9fsC-pB3n-k-25" edge="1">
          <mxGeometry relative="1" as="geometry" />
        </mxCell>
        <mxCell id="jFdYPY6QI9fsC-pB3n-k-24" value="Start Node server, initialize feature flags, etc." style="rounded=0;whiteSpace=wrap;html=1;" parent="1" vertex="1">
          <mxGeometry x="1020" y="315" width="150" height="60" as="geometry" />
        </mxCell>
        <mxCell id="jFdYPY6QI9fsC-pB3n-k-25" value="App" style="rounded=1;whiteSpace=wrap;html=1;" parent="1" vertex="1">
          <mxGeometry x="1280" y="315" width="100" height="60" as="geometry" />
        </mxCell>
      </root>
    </mxGraphModel>
  </diagram>
</mxfile>
